<svg id="Layer_1" data-name="Layer 1" xmlns="http://www.w3.org/2000/svg" xmlns:xlink="http://www.w3.org/1999/xlink" viewBox="0 0 138 138"><defs><style>.cls-1{fill:none;}.cls-2{clip-path:url(#clip-path);}.cls-3{fill:#6cb531;}.cls-4{fill:#fff;}</style><clipPath id="clip-path" transform="translate(-651.4 -1411.04)"><rect class="cls-1" x="651.4" y="1411.04" width="138" height="138"/></clipPath></defs><title>hangouts</title><g class="cls-2"><g id="Hangouts"><rect id="Rectangle_18" data-name="Rectangle 18" class="cls-3" width="138" height="138"/><path id="Path_609" data-name="Path 609" class="cls-4" d="M718.09,1462.19H695a2.31,2.31,0,0,0-2.31,2.31h0v20.76a2.31,2.31,0,0,0,2.31,2.31h9.23v9.23a2.31,2.31,0,0,0,2.31,2.31h2.3a11.56,11.56,0,0,0,11.54-11.54V1464.5A2.3,2.3,0,0,0,718.09,1462.19Z" transform="translate(-651.4 -1411.04)"/><path id="Path_610" data-name="Path 610" class="cls-4" d="M752.39,1462.19H729.32a2.3,2.3,0,0,0-2.31,2.31h0v20.76a2.3,2.3,0,0,0,2.31,2.31h9.23v9.23a2.31,2.31,0,0,0,2.3,2.31h2.31a11.56,11.56,0,0,0,11.54-11.54V1464.5A2.31,2.31,0,0,0,752.39,1462.19Z" transform="translate(-651.4 -1411.04)"/></g></g></svg>