<svg height="511pt" viewBox="-4 0 511 511.98723" width="511pt" xmlns="http://www.w3.org/2000/svg"><path d="m442.226562 116.511719c-38.605468-72.097657-113.917968-116.933594-195.703124-116.50781275-81.78125.42578175-156.621094 46.04296875-194.476563 118.53906275l-21.1875 60.910156c-1.585937 8.222656-2.675781 16.535156-3.265625 24.894531-.851562 10.558594-3.136719 20.953125-6.796875 30.894532-6.019531 16.378906-9.707031 33.527343-10.945313 50.933593v.089844l3.441407 52.171875c20.214843 98.691406 117.496093 173.550781 234.375 173.550781 115.023437 0 211.066406-72.476562 233.398437-168.871093l3.179688-68.679688c-1.824219-13.433594-5.082032-26.632812-9.710938-39.371094-3.667968-9.910156-5.953125-20.277344-6.796875-30.808594-.53125-6.972656-1.324219-13.859374-2.472656-20.570312zm0 0" fill="#f0c419"/><path d="m362.425781 225.089844c.023438 13.03125-3.582031 25.808594-10.417969 36.898437-26.640624-.5625-52.636718 8.25-73.445312 24.894531-24.523438-10.660156-40.207031-35.054687-39.722656-61.792968 0-36.546875 18.800781-75.035156 52.964844-75.035156 34.160156 0 70.621093 38.488281 70.621093 75.035156zm0 0" fill="#fff"/><path d="m278.5625 295.710938c-3.710938.003906-7.03125-2.316407-8.304688-5.804688-1.269531-3.488281-.222656-7.398438 2.621094-9.785156 22.402344-17.9375 50.378906-27.476563 79.078125-26.957032 10.15625-.089843 20.292969.941407 30.222657 3.078126 4.738281 1.160156 7.636718 5.941406 6.476562 10.679687-1.160156 4.734375-5.941406 7.632813-10.675781 6.472656-8.546875-1.78125-17.253907-2.644531-25.980469-2.578125-24.558594-.503906-48.523438 7.570313-67.769531 22.828125-1.589844 1.332031-3.59375 2.066407-5.667969 2.066407zm0 0" fill="#e57e25"/><path d="m318.285156 211.847656c0 9.753906-7.902344 17.65625-17.652344 17.65625s-17.65625-7.902344-17.65625-17.65625c0-9.75 7.90625-17.652344 17.65625-17.652344s17.652344 7.902344 17.652344 17.652344zm0 0" fill="#2c2f38"/><path d="m132.90625 141.230469c-4.875 0-8.828125-3.953125-8.828125-8.828125s3.953125-8.828125 8.828125-8.828125c37.722656 0 53.445312-38.207031 53.59375-38.585938 1.167969-2.929687 3.8125-5.011719 6.9375-5.464843 3.121094-.453126 6.246094.796874 8.199219 3.273437 1.953125 2.480469 2.433593 5.8125 1.265625 8.742187-.8125 2.019532-20.453125 49.691407-69.996094 49.691407zm0 0" fill="#2c2f38"/><path d="m362.425781 141.230469c-49.542969 0-69.183593-47.671875-69.996093-49.691407-1.8125-4.527343.386718-9.667968 4.914062-11.480468s9.667969.386718 11.480469 4.910156c.6875 1.695312 16.207031 38.605469 53.601562 38.605469 4.875 0 8.828125 3.953125 8.828125 8.828125s-3.953125 8.828125-8.828125 8.828125zm0 0" fill="#2c2f38"/><path d="m368.886719 398.535156c-3.308594 10.734375-11.511719 19.265625-22.109375 22.996094-10.59375 3.726562-22.332032 2.210938-31.632813-4.085938l-1.015625-.699218c-40.054687-27.460938-92.871094-27.460938-132.925781 0l-1.015625.699218c-9.300781 6.296876-21.039062 7.8125-31.632812 4.085938-10.597657-3.730469-18.800782-12.261719-22.109376-22.996094-5.722656-14.621094-1.199218-31.265625 11.132813-40.988281 31.683594-24.351563 70.15625-38.246094 110.089844-39.765625 39.929687 1.519531 78.402343 15.414062 110.085937 39.765625 12.332032 9.722656 16.855469 26.367187 11.132813 40.988281zm0 0" fill="#802d40"/><path d="m62.285156 311.867188c-.011718 3.21875-.460937 6.417968-1.339844 9.515624-3.457031 13.507813-15.628906 22.957032-29.574218 22.957032-13.941406 0-26.113282-9.449219-29.570313-22.957032-.867187-3.097656-1.304687-6.300781-1.308593-9.515624 0-25.988282 30.898437-47.050782 30.898437-47.050782s30.894531 21.0625 30.894531 47.050782zm0 0" fill="#2fa8cc"/><path d="m74.644531 171.613281c-1.921875 2.582031-4.191406 4.890625-6.742187 6.859375-10.816406 8.75-26.179688 9.085938-37.363282.8125-11.1875-8.273437-15.367187-23.0625-10.164062-35.964844 1.140625-3.011718 2.683594-5.851562 4.589844-8.449218 15.445312-20.894532 52.8125-19.417969 52.8125-19.417969s12.34375 35.273437-3.132813 56.160156zm0 0" fill="#2fa8cc"/><path d="m441.871094 311.867188c.015625 3.21875.464844 6.417968 1.34375 9.515624 3.457031 13.507813 15.628906 22.957032 29.574218 22.957032 13.941407 0 26.113282-9.449219 29.570313-22.957032.867187-3.097656 1.304687-6.300781 1.308594-9.515624 0-25.988282-30.898438-47.050782-30.898438-47.050782s-30.898437 21.0625-30.898437 47.050782zm0 0" fill="#2fa8cc"/><path d="m429.515625 171.613281c1.921875 2.582031 4.191406 4.890625 6.742187 6.859375 10.816407 8.75 26.179688 9.085938 37.363282.8125 11.1875-8.273437 15.367187-23.0625 10.164062-35.964844-1.140625-3.011718-2.683594-5.851562-4.589844-8.449218-15.449218-20.894532-52.816406-19.417969-52.816406-19.417969s-12.339844 35.273437 3.136719 56.160156zm0 0" fill="#2fa8cc"/><path d="m132.90625 225.089844c-.023438 13.03125 3.582031 25.808594 10.417969 36.898437 26.640625-.5625 52.636719 8.25 73.445312 24.894531 24.523438-10.660156 40.207031-35.054687 39.722657-61.792968 0-36.546875-18.800782-75.035156-52.964844-75.035156-34.160156 0-70.621094 38.488281-70.621094 75.035156zm0 0" fill="#fff"/><path d="m216.769531 295.710938c3.710938.003906 7.03125-2.316407 8.304688-5.804688 1.269531-3.488281.222656-7.398438-2.621094-9.785156-22.402344-17.9375-50.378906-27.476563-79.078125-26.957032-10.15625-.089843-20.292969.941407-30.222656 3.078126-4.738282 1.160156-7.636719 5.941406-6.476563 10.679687 1.160157 4.734375 5.941407 7.632813 10.675781 6.472656 8.546876-1.78125 17.253907-2.644531 25.980469-2.578125 24.558594-.503906 48.523438 7.570313 67.769531 22.828125 1.589844 1.332031 3.59375 2.066407 5.667969 2.066407zm0 0" fill="#e57e25"/><path d="m212.355469 211.847656c0 9.753906-7.902344 17.65625-17.65625 17.65625-9.75 0-17.652344-7.902344-17.652344-17.65625 0-9.75 7.902344-17.652344 17.652344-17.652344 9.753906 0 17.65625 7.902344 17.65625 17.652344zm0 0" fill="#2c2f38"/><g fill="#fff"><path d="m194.699219 203.023438c0 4.875-3.949219 8.824218-8.828125 8.824218-4.875 0-8.824219-3.949218-8.824219-8.824218 0-4.878907 3.949219-8.828126 8.824219-8.828126 4.878906 0 8.828125 3.949219 8.828125 8.828126zm0 0"/><path d="m300.632812 203.023438c0 4.875-3.953124 8.824218-8.828124 8.824218s-8.828126-3.949218-8.828126-8.824218c0-4.878907 3.953126-8.828126 8.828126-8.828126s8.828124 3.949219 8.828124 8.828126zm0 0"/><path d="m330.203125 423.445312c-5.441406-.75-10.621094-2.808593-15.09375-6-.308594-.257812-.632813-.492187-.972656-.707031-40.0625-27.453125-92.878907-27.453125-132.941407 0-.339843.214844-.664062.449219-.972656.707031-4.472656 3.191407-9.652344 5.25-15.09375 6-8.296875-29.484374 6.089844-43.695312 12.359375-48.375.863281-.65625 1.777344-1.246093 2.734375-1.765624.308594-.253907.632813-.492188.972656-.703126 40.0625-27.457031 92.878907-27.457031 132.941407 0 .339843.210938.664062.449219.972656.703126.957031.519531 1.871094 1.109374 2.734375 1.765624 6.269531 4.679688 20.65625 18.890626 12.359375 48.375zm0 0"/><path d="m364.011719 363.949219c-10.097657 15.230469-30.238281 20.082031-46.167969 11.121093-.863281-.65625-1.777344-1.246093-2.734375-1.765624-.308594-.253907-.632813-.492188-.972656-.703126-40.0625-27.457031-92.878907-27.457031-132.941407 0-.339843.210938-.664062.449219-.972656.703126-.957031.519531-1.871094 1.109374-2.734375 1.765624-15.929687 8.960938-36.070312 4.109376-46.167969-11.121093 1.832032-2.382813 3.9375-4.542969 6.265626-6.445313 31.6875-24.332031 70.15625-38.210937 110.082031-39.722656 39.921875 1.511719 78.390625 15.390625 110.078125 39.722656 2.328125 1.902344 4.433594 4.0625 6.265625 6.445313zm0 0"/></g><path d="m332.410156 411.441406c-.886718-10.492187-6.179687-20.117187-14.566406-26.484375-.863281-.65625-1.777344-1.246093-2.734375-1.765625-.308594-.253906-.632813-.492187-.972656-.703125-40.0625-27.453125-92.878907-27.453125-132.941407 0-.339843.210938-.664062.449219-.972656.703125-.957031.519532-1.871094 1.109375-2.734375 1.765625-8.386719 6.367188-13.679687 15.992188-14.566406 26.484375-2.128906-13.871094 3.449219-27.804687 14.566406-36.371094.863281-.65625 1.777344-1.246093 2.734375-1.765624.308594-.253907.632813-.492188.972656-.703126 40.0625-27.457031 92.878907-27.457031 132.941407 0 .339843.210938.664062.449219.972656.703126.957031.519531 1.871094 1.109374 2.734375 1.765624 11.117188 8.566407 16.695312 22.5 14.566406 36.371094zm0 0" fill="#e6e7e8"/><path d="m364.011719 363.949219c-10.097657 15.230469-30.238281 20.082031-46.167969 11.121093-.863281-.65625-1.777344-1.246093-2.734375-1.765624-.308594-.253907-.632813-.492188-.972656-.703126-40.0625-27.457031-92.878907-27.457031-132.941407 0-.339843.210938-.664062.449219-.972656.703126-.957031.519531-1.871094 1.109374-2.734375 1.765624-15.929687 8.960938-36.070312 4.109376-46.167969-11.121093 1.152344-1.535157 2.453126-2.957031 3.882813-4.238281 10.851563 11.765624 28.390625 14.476562 42.285156 6.53125.863281-.65625 1.777344-1.246094 2.734375-1.765626.308594-.253906.632813-.492187.972656-.703124 40.0625-27.453126 92.878907-27.453126 132.941407 0 .339843.210937.664062.449218.972656.703124.957031.519532 1.871094 1.109376 2.734375 1.765626 13.894531 7.945312 31.433594 5.234374 42.285156-6.53125 1.429688 1.28125 2.730469 2.703124 3.882813 4.238281zm0 0" fill="#e6e7e8"/></svg>