<svg id="Flat" height="512" viewBox="0 0 64 64" width="512" xmlns="http://www.w3.org/2000/svg"><g id="Stroke_copy_2" data-name="Stroke copy 2"><path d="m37 22h4a0 0 0 0 1 0 0v29a2 2 0 0 1 -2 2 2 2 0 0 1 -2-2v-29a0 0 0 0 1 0 0z" fill="#4daf4d"/><path d="m41 25a0 0 0 0 1 0 0v11a0 0 0 0 1 0 0 2 2 0 0 1 -2-2v-7a2 2 0 0 1 2-2z" fill="#7ecf7e"/><path d="m22 22a17 17 0 0 1 34 0z" fill="#9ed8ec"/><path d="m33.7 5.85a17 17 0 0 0 -11.7 16.15h32.5a21.49 21.49 0 0 1 -20.8-16.15z" fill="#6bbeda"/><path d="m32 22c0-9.39 3.13-17 7-17s7 7.61 7 17z" fill="#ff9b9b"/><path d="m34.64 8.72c-1.64 3.12-2.64 7.9-2.64 13.28h14c0-.6 0-1.19 0-1.77a21.57 21.57 0 0 1 -11.36-11.51z" fill="#db6060"/><path d="m61 51-6.45-2.76a19.82 19.82 0 0 0 -15.18-.19 19.87 19.87 0 0 1 -14.74 0 19.82 19.82 0 0 0 -15.18.19l-6.45 2.76v10h58z" fill="#ffd879"/><g fill="#ffe5a7"><path d="m39.5 56a20.28 20.28 0 0 1 -14.88 0 18.37 18.37 0 0 0 -3.12-.95 12.11 12.11 0 0 1 -8.79-7.92 19.08 19.08 0 0 0 -3.26 1.06l-6.45 2.81v10h58v-2l-6.45-2.76a19.81 19.81 0 0 0 -15.05-.24z"/><circle cx="12" cy="12" r="4"/><circle cx="12" cy="4" r="1"/><circle cx="12" cy="20" r="1"/><circle cx="4" cy="12" r="1"/><circle cx="20" cy="12" r="1"/><circle cx="17.66" cy="6.34" r="1"/><circle cx="6.34" cy="17.66" r="1"/><circle cx="6.34" cy="6.34" r="1"/><circle cx="17.66" cy="17.66" r="1"/></g><path d="m57.54 25.41-7.85 13.59h-29.69v4h32l9-15.59z" fill="#9ed8ec"/><path d="m46 43h4a0 0 0 0 1 0 0v8a2 2 0 0 1 -2 2 2 2 0 0 1 -2-2v-8a0 0 0 0 1 0 0z" fill="#2791b4"/><path d="m50.54 30.07-2.85 4.93h-18.69a4 4 0 0 0 -4 4h25l6-10.39a4 4 0 0 0 -5.46 1.46z" fill="#ff9b9b"/><path d="m25 43h4a0 0 0 0 1 0 0v8a2 2 0 0 1 -2 2 2 2 0 0 1 -2-2v-8a0 0 0 0 1 0 0z" fill="#2791b4"/><path d="m54.14 28.09-3.41 5.91a6 6 0 0 1 -5.19 3h-20a4 4 0 0 0 -.54 2h25l6-10.39a3.93 3.93 0 0 0 -1.86-.52z" fill="#db6060"/><path d="m59.38 26.48-6.65 11.52a6 6 0 0 1 -5.19 3h-27.54v2h32l9-15.59z" fill="#6bbeda"/><path d="m50 45a0 0 0 0 1 0 0v6a2 2 0 0 1 -2 2 0 0 0 0 1 0 0v-6a2 2 0 0 1 2-2z" fill="#6bbeda"/><path d="m29 45a0 0 0 0 1 0 0v6a2 2 0 0 1 -2 2 0 0 0 0 1 0 0v-6a2 2 0 0 1 2-2z" fill="#6bbeda"/></g></svg>