<?xml version="1.0" encoding="iso-8859-1"?>
<!-- Generator: Adobe Illustrator 19.0.0, SVG Export Plug-In . SVG Version: 6.00 Build 0)  -->
<svg version="1.1" id="Layer_1" xmlns="http://www.w3.org/2000/svg" xmlns:xlink="http://www.w3.org/1999/xlink" x="0px" y="0px"
	 viewBox="0 0 512 512" style="enable-background:new 0 0 512 512;" xml:space="preserve">
<path style="fill:#6CB531;" d="M418.917,67.483C375.401,23.966,317.542,0,256,0S136.599,23.966,93.083,67.483
	C49.566,111.001,25.6,168.859,25.6,230.4s23.966,119.401,67.483,162.917c41.501,41.501,96.041,65.22,154.384,67.328v42.821
	c0,4.713,3.821,8.533,8.533,8.533c51.507,0,108.47-28.13,152.377-75.249C458.69,382.755,486.4,309.472,486.4,230.4
	C486.4,168.859,462.434,111.001,418.917,67.483z"/>
<path style="fill:#539E31;" d="M118.683,401.851C75.166,358.334,51.2,300.475,51.2,238.933s23.966-119.401,67.483-162.917
	S220.058,8.533,281.6,8.533c20.596,0,40.774,2.698,60.146,7.901C314.841,5.657,285.857,0,256,0
	C194.458,0,136.599,23.966,93.083,67.483C49.566,111.001,25.6,168.859,25.6,230.4s23.966,119.401,67.483,162.917
	c28.946,28.946,64.238,49.228,102.736,59.574C167.278,441.454,141.079,424.247,118.683,401.851z"/>
<path style="fill:#FFFFFF;" d="M238.933,170.667H153.6c-4.713,0-8.533,3.821-8.533,8.533V256c0,4.713,3.821,8.533,8.533,8.533
	h34.133v34.133c0,4.713,3.821,8.533,8.533,8.533h8.533c23.526,0,42.667-19.14,42.667-42.667V179.2
	C247.467,174.487,243.646,170.667,238.933,170.667z"/>
<g>
	<path style="fill:#E5E5E5;" d="M162.133,256v-76.8c0-4.713,3.821-8.533,8.533-8.533H153.6c-4.713,0-8.533,3.821-8.533,8.533V256
		c0,4.713,3.821,8.533,8.533,8.533h17.067C165.954,264.533,162.133,260.713,162.133,256z"/>
	<path style="fill:#E5E5E5;" d="M204.8,298.667v-34.133h-17.067v34.133c0,4.713,3.821,8.533,8.533,8.533h8.533
		c2.003,0,3.972-0.149,5.903-0.418C207.278,305.673,204.8,302.461,204.8,298.667z"/>
</g>
<path style="fill:#FFFFFF;" d="M358.4,170.667h-85.333c-4.713,0-8.533,3.821-8.533,8.533V256c0,4.713,3.821,8.533,8.533,8.533H307.2
	v34.133c0,4.713,3.821,8.533,8.533,8.533h8.533c23.526,0,42.667-19.14,42.667-42.667V179.2
	C366.933,174.487,363.113,170.667,358.4,170.667z"/>
<g>
	<path style="fill:#E5E5E5;" d="M281.6,256v-76.8c0-4.713,3.821-8.533,8.533-8.533h-17.067c-4.713,0-8.533,3.821-8.533,8.533V256
		c0,4.713,3.821,8.533,8.533,8.533h17.067C285.421,264.533,281.6,260.713,281.6,256z"/>
	<path style="fill:#E5E5E5;" d="M324.267,298.667v-34.133H307.2v34.133c0,4.713,3.821,8.533,8.533,8.533h8.533
		c2.003,0,3.972-0.149,5.903-0.418C326.745,305.673,324.267,302.461,324.267,298.667z"/>
</g>
<g>
</g>
<g>
</g>
<g>
</g>
<g>
</g>
<g>
</g>
<g>
</g>
<g>
</g>
<g>
</g>
<g>
</g>
<g>
</g>
<g>
</g>
<g>
</g>
<g>
</g>
<g>
</g>
<g>
</g>
</svg>
