<svg id="Layer_1" data-name="Layer 1" xmlns="http://www.w3.org/2000/svg" viewBox="0 0 138.45 138.45"><defs><style>.cls-1{fill:#15ace5;}.cls-2{fill:#fff;}</style></defs><title>skype</title><rect id="Rectangle_16" data-name="Rectangle 16" class="cls-1" width="138.45" height="138.45"/><path id="Path_600" data-name="Path 600" class="cls-2" d="M765.76,1489.19A44.48,44.48,0,0,0,713.59,1437a25.65,25.65,0,0,0-35.1,35.09,44.48,44.48,0,0,0,52.17,52.17,25.65,25.65,0,0,0,35.1-35.09Zm-42.79,22c-15.8,0-23.7-5.92-26.12-13.37s2.88-9.57,4.55-9.72,5.22.25,6.23,3.34,4.56,9.57,12.15,10.33,12.61-2.73,14.13-6.38-1.21-8.66-12.91-10.33-23.85-6.83-23.85-18.53,13.37-16.4,26.13-16.4,19.23,7.21,20.66,10c1.77,3.49,1.16,9.31-3,10.33-4.4,1.06-6.69-1.37-9.88-7.29-3.3-6.13-15-4.56-19-1.07s-2.89,8.51,13.52,11.7S748,1482.94,748,1492.2,738.77,1511.18,723,1511.18Z" transform="translate(-650.4 -1411.04)"/></svg>